<svg xmlns="http://www.w3.org/2000/svg" xmlns:xlink="http://www.w3.org/1999/xlink" width="700" height="467" viewBox="0 0 700 467"><defs><clipPath id="b"><rect width="700" height="467"/></clipPath></defs><g id="a" clip-path="url(#b)"><rect width="700" height="467" fill="#fff"/><path d="M0-199.665H699.542v-467H0Z" transform="translate(0.458 666.665)" fill="#d2e7f2"/><path d="M698.542-229.521V12.622H0V-226.936c50.672-15.158,148.9-39.663,246.7-36.8,140.477,4.107,220.376,63.022,311.689,59.25,66.934-2.78,117.788-17.422,140.155-25.036" transform="translate(1.458 454.378)" fill="#22588a"/><path d="M716.164-213.092c-7.072,17.676-49.494,41.651-104.1,35.569s-69.155-9.537-95.186-12.747-60.449-5.372-60.629-22.822a31.44,31.44,0,0,1,3.532-14.285c10.113-20.453,39.9-37.552,61.629-40.686,19.715-2.852,30.6,4.852,41.782,8.015a28.426,28.426,0,0,0,12.3.992c16.921-2.568,20.942-42.8,53.008-52.905a146.989,146.989,0,0,1,15.647-4.1c22.7-4.522,37.645-.056,54.339,13.814,20.244,16.826,24.749,71.478,17.675,89.153" transform="translate(-19.29 508.976)" fill="#2f84ce"/><path d="M627.185-176.559a156.014,156.014,0,0,1-17.275-.964c-54.594-6.082-69.155-9.537-95.186-12.747-4.373-.539-8.983-1.048-13.625-1.606a290.711,290.711,0,0,1-5.924-32.355c23.595-5.886,51.243-17.552,56.656-28.045,2.191-4.248,4.473-6.107,7.058-6.107a6.138,6.138,0,0,1,1.61.225c5.326,1.434,11.983,9.592,21.633,20.583,9.044,10.3,30.484,21.042,49.843,21.042,13.99,0,26.89-5.607,33.246-21.042,13.21-32.1,1.068-63.518-23.226-78.484a80.49,80.49,0,0,1,15.727-1.7,51.843,51.843,0,0,1,18.433,3.215v129.55a142.187,142.187,0,0,1-48.971,8.434" transform="translate(-17.136 508.976)" fill="#2979c7"/><path d="M215.139-198.634c-1.734,7.563-41.845,7.878-57.366,6.619-4.079-.333-17.576.148-35.453.851-50.029,2.009-134.343,5.879-142.425-.851-10.973-9.138-21.234-66.18-17.421-89.656s25.369-47.018,25.369-47.018S-9.7-337.114.33-344.594c8.027-6,20.9-11.386,41.257-11.386,45.792,0,60.179,30.346,67.749,56.506s12.485,52.943,34.441,63.654,39.644,2.3,55.4,10.6,17.688,19.024,15.964,26.588" transform="translate(38.336 513.86)" fill="#7ecff3"/><path d="M201.894-207.028c-4.863,0-6.958-3.111-6.954-7.5a21.287,21.287,0,0,1,1.4-7.058,9.686,9.686,0,0,1,1.846-3.021,38.616,38.616,0,0,1,8.8,6.533q.053.844.1,1.694c.125,2.184.186,4.237.186,6.172q0,1.138-.028,2.219a17.952,17.952,0,0,1-5.36.958m-80.231-36.734a57.493,57.493,0,0,0-7.784-5.937,6.707,6.707,0,0,1,2.781.849,14.016,14.016,0,0,1,5,5.088M69.908-269.014a45.363,45.363,0,0,0-7.308-9.847c-3.015-15.651-2.776-33.44-8.16-47.986C49.2-341.014,33.363-347.3,16.917-347.3A66.3,66.3,0,0,0,0-345.1v-.766c8.109-5.468,20.56-10.114,39.465-10.114,15.182,0,26.913,3.336,36.087,8.749-4.5,22.613-5.8,40.165-4.569,44.291a2.312,2.312,0,0,0,2.371,1.947c2.635,0,6.829-2.894,10.868-3.145.106-.007.211-.01.316-.01,5.616,0,10.6,8.9,3.864,13.68a5.561,5.561,0,0,1-3.306,1.04c-2.322,0-4.746-1.23-6.881-2.46s-3.983-2.461-5.15-2.461c-.86,0-1.352.668-1.319,2.5.082,4.406-1.138,13.991-1.837,22.838" transform="translate(40.458 513.86)" fill="#72b9e8"/><path d="M154.382-194.8c-5.292,14.386-71.907,10.217-100.668,4.537-16.606-3.274-29.932-1.378-42.384.519-9.113,1.387-17.758,2.776-26.878,2.137-11.239-.789-17.032-10.717-18.654-23.379-1.513-11.63.5-25.559,5.036-36.8,9.461-23.468,23.458-26.3,23.458-26.3S7.122-290.4,25.622-294.569a37.128,37.128,0,0,1,22.034,1.634c29.528,11.462,26.115,36.264,36.332,39.944,5.03,1.815,8.043.267,11.561-1.281,3.636-1.6,7.812-3.2,15.31-1.088,14.763,4.169,48.827,46.171,43.524,60.557" transform="translate(38.538 517.206)" fill="#2f83cd"/><path d="M110.352-185.009c-7.41,0-15.177-.311-22.745-.839a11.011,11.011,0,0,0-3.8-.654,13.01,13.01,0,0,0-2.177.189,290.462,290.462,0,0,1-29.833-3.953,93.381,93.381,0,0,0-11.117-1.513c-2.449-.184-4.828-.266-7.145-.266-3.461,0-6.785.182-10.009.471-4.9.44-9.564,1.134-14.112,1.826-3.18.484-6.3.968-9.411,1.368H0V-197.7H.02q1.71,0,3.458-.125c27.362-2,32.381-12.246,47.785-12.246.368,0,.74.006,1.12.017,8.818.277,21.361,5.318,33.2,8.038,6.867,7.621,18.255,14.664,28.476,14.664a19.14,19.14,0,0,0,6.32-1.023c8.311-2.889,19.817-5.938,29.413-5.938.826,0,1.639.022,2.434.069-3.384,6.833-21.266,9.238-41.871,9.238m6.05-43.14a35.557,35.557,0,0,0-15.1-16.559,13.118,13.118,0,0,0-4.047-1.534c5.973-3.09,11.406-6.83,15.964-6.83.223,0,.444.008.662.027a57.491,57.491,0,0,1,7.784,5.937c3.726,6.288,3.517,15.464-5.261,18.96m-47.014-7.622c-3.305,0-6.973-1.1-11.189-4.012-19.1-13.186.511-50.106-34.5-54.786a38.422,38.422,0,0,1,8.456-.96,37.16,37.16,0,0,1,13.578,2.593c13.369,5.189,19.986,13.114,24.172,20.575-.572,7.237-.794,13.981.331,16.991,2.454,6.581,1.236,13.154,13.428,13.154.192,0,.389,0,.588-.006.114,0,.228,0,.341-.008-.573.37-1.149.75-1.728,1.129-4.076,2.665-8.339,5.329-13.48,5.33" transform="translate(40.458 517.206)" fill="#2b79c7"/><path d="M193.628-305.628c22.752,22.341,8.869,21.357.64,28.607s-5.541,15.122,1.931,11.333,4.237-10.257,14.986-9.179,18.4,23.652,17.173,30.581S196.622-231.858,192.7-221s-.091,20.029,17.64,10.691,21.245-15.708,24.3-13.876-5.534,40.838-16.029,54.9S208-154.347,214.028-146.738c2.489,3.135,3.454,5.719,3.452,7.869,0,3.063-1.978,5.251-4.372,6.917a14.008,14.008,0,0,1-2.742,1.463,17.981,17.981,0,0,1-3.863,1.057,16.321,16.321,0,0,1-2.567.22,13.062,13.062,0,0,0-2.446-6.851c-4.468-6.433-14.945-11.571-30.888-13.093-21.31-2.035-45.028-12.711-48.092-21.532s6.045-2.872,22.8,1.359,23.952-5.761,16.365-15.566-30.853-4.454-44.938.443-33.422-8.827-39.309-19.909-1.815-24.673-1.815-24.673,24.524,9.481,36.765,4.959,8.6-19.691.644-24.2-19.589,9.763-32.406,9.975S69.089-244.759,66.6-251.444s1.654-31.818,1.506-39.829c-.079-4.309,2.76-2.173,6.469-.035,3.186,1.835,7.015,3.671,10.187,1.42,6.865-4.87,1.562-14.015-4.18-13.67s-11.788,6.046-13.239,1.2.605-28.228,7.225-56.575a8.809,8.809,0,0,1,4.25-5.956c19.455-11.007,94.308,39.141,114.811,59.264" transform="translate(33.1 455.281)" fill="#56c4af"/><path d="M195.489-181.58c-7.6-2.215-12.86-3.882-15.326-4.544-5.354-6.971-10.862-14.422-16.356-22.324-31.232-44.934-80.686-150.1-81.56-151.008-.008-.007-.013-.011-.018-.011a23.009,23.009,0,0,0,1.161,4.167c-2.113-4.109-3.884-7.364-5.255-9.591a14.406,14.406,0,0,1,7.125-1.56c23.306,0,75.18,33.392,99.647,53.672,2.7,12.073,5.731,23.742,8.541,35.882-3.426,3.063-4.909,6.227-4.912,8.564a3.3,3.3,0,0,0,3.456,3.63,7.958,7.958,0,0,0,3.525-.984c.127-.065.252-.131.373-.2,1.525,7.245,2.921,14.738,4.079,22.646h0c.64,4.358,1.207,8.845,1.686,13.489-4.655,2.536-8.419,5.385-9.633,8.747a21.288,21.288,0,0,0-1.4,7.058c0,4.386,2.091,7.5,6.954,7.5a17.952,17.952,0,0,0,5.36-.958c-.31,12.339-3.238,19.608-7.441,25.826" transform="translate(33.783 455.281)" fill="#41a998"/><path d="M82.032-359.822c.874.9,50.328,106.075,81.56,151.008,20.616,29.645,41.424,52.963,53.5,68.317-.008,3.378-2.185,5.8-4.822,7.638a17.82,17.82,0,0,1-7.268,2.79q-2.431-3.278-5.395-7.382c-13.182-18.359-33.794-49.092-58.444-92.91-43.33-77.006-59.993-130.363-59.128-129.462" transform="translate(33.997 455.647)" fill="#7dd3c4"/><g transform="translate(-6.624 50.191)"><path d="M400.413-427.575h-60.5s-4.952-5.448,0-16.6,27.6-8.948,37.86-4.357,22.639,20.953,22.639,20.953" transform="translate(6.283 517.906)" fill="#2f83cd"/><path d="M380.666-502.238s11.293-4.416,21.365,0,8.586,5.536,13.417,14.629a41.254,41.254,0,0,1,0,38.506c-7.741,14.706-19.112,13.283-28.845,9.726A30.661,30.661,0,0,1,372.125-450.5h-33.18s-3.825-18.052,4.241-34.182,37.479-17.554,37.479-17.554" transform="translate(6.225 527.36)" fill="#a5c1db"/><path d="M386.122-490.191c-.4-.867-7.643-16.254-21.2-12.894-13.953,3.443-26.763,18.939-32.535,47.411s6.638,126.744,14.665,163.151,29.22,76.641,15.615,98.437-169.835,3.453-177.114-1.616a25.471,25.471,0,0,1-5.442-5.67c-6.483-8.748-12.574-24.116-5.47-34.654,1.444-2.136,2.9-4.018,4.3-5.753,7.543-9.3,13.98-14.629,12.785-35.52-.438-7.58-1.2-14.62-2.173-21.268-5.8-39.594-19.268-65.728-17.917-114.006,1.58-56.387,10.128-69.673,32.262-92.758,18.7-19.5,45.858-11.076,78.12-10.127,18.884.557,42.707.813,61.583,2.3,13.377,1.059,24.262,2.738,29.129,5.607,11.323,6.647,13.287,16.655,13.4,17.358" transform="translate(36.557 529.887)" fill="#fff"/><path d="M324.565-471.7h-8.277a4.434,4.434,0,0,1-4.5-4.866q.393-4.139,1.085-8.277a6.148,6.148,0,0,1,5.806-4.867h8.277a3.939,3.939,0,0,1,3.927,4.867c-.467,2.758-.822,5.518-1.085,8.277a5.393,5.393,0,0,1-5.235,4.866" transform="translate(11.008 524.721)" fill="#2f89d1"/><path d="M315.354-379.389h-9.6a6.389,6.389,0,0,1-6.207-5.645c-.3-3.2-.577-6.4-.8-9.6a5.25,5.25,0,0,1,5.3-5.645h9.6a6.12,6.12,0,0,1,5.987,5.645q.337,4.8.8,9.6a5.04,5.04,0,0,1-5.083,5.645" transform="translate(13.381 508.438)" fill="#2f89d1"/><path d="M330.3-283.834h-9.827a6.263,6.263,0,0,1-6.128-5.777q-.345-4.914-.82-9.828a5.159,5.159,0,0,1,5.2-5.778h9.827a6.54,6.54,0,0,1,6.354,5.778q.466,4.914.82,9.828a5.371,5.371,0,0,1-5.428,5.777" transform="translate(10.692 491.129)" fill="#2f89d1"/><path d="M335.616-200.984H325.96a4.594,4.594,0,0,1-4.579-5.676q.815-4.827,1.265-9.655a6.291,6.291,0,0,1,6.106-5.676h9.655a5.17,5.17,0,0,1,5.247,5.676c-.305,3.218-.721,6.436-1.265,9.655a7.172,7.172,0,0,1-6.772,5.676" transform="translate(9.273 475.975)" fill="#2f89d1"/><path d="M273.418-475.145H209.506a4.588,4.588,0,0,1-4.575-4.574,4.589,4.589,0,0,1,4.575-4.575h63.912a4.588,4.588,0,0,1,4.574,4.575,4.587,4.587,0,0,1-4.574,4.574" transform="translate(30.461 523.735)" fill="#2f89d1"/><path d="M268.019-384.633H197.237a5.661,5.661,0,0,1-5.646-5.646,5.662,5.662,0,0,1,5.646-5.647h70.781a5.663,5.663,0,0,1,5.647,5.647,5.662,5.662,0,0,1-5.647,5.646" transform="translate(32.89 507.646)" fill="#2f89d1"/><path d="M278.2-290.085H215.239a4.521,4.521,0,0,1-4.507-4.507,4.521,4.521,0,0,1,4.507-4.507H278.2a4.521,4.521,0,0,1,4.507,4.507,4.521,4.521,0,0,1-4.507,4.507" transform="translate(29.405 490.015)" fill="#2f89d1"/><path d="M289.66-202.545H232.6a3.313,3.313,0,0,1-3.3-3.3,3.313,3.313,0,0,1,3.3-3.3H289.66a3.313,3.313,0,0,1,3.3,3.3,3.313,3.313,0,0,1-3.3,3.3" transform="translate(26.025 473.637)" fill="#2f89d1"/><path d="M351.185-187.131c-10.325,0-20.768-6.16-23.462-17.857a25.648,25.648,0,0,1-.621-4.32c-.083-1.442-.129-2.83-.137-4.154v-.291c0-16.425,5.826-23.067,5.826-23.067h0a357.35,357.35,0,0,1-46.067,2.95,259.319,259.319,0,0,1-40.745-2.95,473.217,473.217,0,0,1-56.643-12.864c3.448-5.1,5.789-11.115,5.789-21.736,0-1.5-.047-3.091-.144-4.783q-.324-5.595-.867-10.814c-.371-3.6-.81-7.077-1.307-10.454a13.722,13.722,0,0,1,1.674-.1c4.616,0,9.772,2.13,16.268,4.261a75.052,75.052,0,0,0,24.3,4.261,86.35,86.35,0,0,0,27.579-4.889c16.68-5.584,27.819-15.4,34.221-27.649a5.784,5.784,0,0,0,1.023.09H307.7a5.371,5.371,0,0,0,5.428-5.777q-.345-4.914-.82-9.828a6.54,6.54,0,0,0-6.354-5.778h-2.793c1.99-17.847-2.725-37.975-12.581-56.863h4.859a5.036,5.036,0,0,0,5.092-5.539l22.549,17.364c-2.79.354-3.427,1.77-3.427,1.77a39.524,39.524,0,0,0,18.162,31.741q1.3.834,2.635,1.53c3.087,24.616,6.792,47.546,9.858,61.449,1.555,7.055,3.605,14.256,5.8,21.435a116.031,116.031,0,0,0,.884,17.987c1.638,12.61,7.1,24.635,13.02,34.471a64.137,64.137,0,0,1,.36,6.6c0,6.794-1.28,12.871-4.449,17.947a10.028,10.028,0,0,1-3.034,2.95l.039-.027.009-.009h-.009a24.262,24.262,0,0,1-11.74,2.945m-46.461-87.676a6.291,6.291,0,0,0-6.106,5.676q-.458,4.827-1.265,9.655a4.594,4.594,0,0,0,4.579,5.676h9.656a7.172,7.172,0,0,0,6.772-5.676c.544-3.218.96-6.436,1.265-9.655a5.17,5.17,0,0,0-5.247-5.676h-9.655m-79.4,10.5a3.313,3.313,0,0,0-3.3,3.3,3.313,3.313,0,0,0,3.3,3.3h57.064a3.313,3.313,0,0,0,3.3-3.3,3.313,3.313,0,0,0-3.3-3.3H225.32m74.592-148.049q-.1-1.317-.2-2.635a6.119,6.119,0,0,0-5.987-5.645h-9.6a5.68,5.68,0,0,0-.614.034c-1.608-17.126,4.518-37.756,15.648-55.17h3.109a5.393,5.393,0,0,0,5.235-4.866q.36-3.78.966-7.562c10.574-12.057,23.807-21.095,38.38-23.862,13.377,1.059,24.262,2.738,29.129,5.607a30.128,30.128,0,0,1,8.669,7.537,16.382,16.382,0,0,0-2.05.754,16.053,16.053,0,0,0-10.615-4.3,15.774,15.774,0,0,0-3.81.479c-13.953,3.443-26.763,18.939-32.534,47.411-.167.823-.32,1.708-.457,2.645a113.967,113.967,0,0,0-.971,13.474q-.054,2.446-.053,5.08c0,.471,0,.944,0,1.424l-7.257-5.783s1.384,4.265-.994,5.7c-1.431.854-3.624.761-5.872,1.226a8.744,8.744,0,0,0-4.33,2.091c-3.317,3.084.483,8.306-4.506,11.39a10.041,10.041,0,0,1-3.484,1.459c-2.369.455-3.7-.409-6.234,1.616a6.045,6.045,0,0,0-1.575,1.907" transform="translate(33.301 528.791)" fill="#f1f1f4"/><path d="M326.722-470.457h-3.109a103.093,103.093,0,0,1,9.31-12.428c-.409,2.52-.726,5.042-.966,7.562a5.393,5.393,0,0,1-5.235,4.866" transform="translate(8.851 523.478)" fill="#2f83cd"/><path d="M316.4-379.389h-4.86q-.97-1.86-2-3.7a43,43,0,0,1-5.057-17.159,5.663,5.663,0,0,1,.614-.034h9.6a6.12,6.12,0,0,1,5.987,5.645q.093,1.318.2,2.635a9.478,9.478,0,0,0-.563,6.167l1.178.906a5.036,5.036,0,0,1-5.092,5.539" transform="translate(12.335 508.438)" fill="#2f83cd"/><path d="M331.629-283.834H321.8a5.778,5.778,0,0,1-1.023-.091,60.054,60.054,0,0,0,6.311-21.292h2.793a6.54,6.54,0,0,1,6.354,5.778q.466,4.914.82,9.828a5.371,5.371,0,0,1-5.428,5.777" transform="translate(9.367 491.129)" fill="#2f83cd"/><path d="M335.616-200.984H325.96a4.594,4.594,0,0,1-4.579-5.676q.815-4.827,1.265-9.655a6.291,6.291,0,0,1,6.106-5.676h9.655a5.17,5.17,0,0,1,5.247,5.676c-.305,3.218-.721,6.436-1.265,9.655a7.172,7.172,0,0,1-6.772,5.676" transform="translate(9.273 475.975)" fill="#2f83cd"/><path d="M289.66-202.545H232.6a3.313,3.313,0,0,1-3.3-3.3,3.313,3.313,0,0,1,3.3-3.3H289.66a3.313,3.313,0,0,1,3.3,3.3,3.313,3.313,0,0,1-3.3,3.3" transform="translate(26.025 473.637)" fill="#2f83cd"/><path d="M359.146-132.5l-.009.009c-1.534,1.077-21.8,14.555-66.9,11.944-36.023-2.073-92.747-8.173-102.71-12.209-9.617-3.9-16.145-11.323-19.569-28.107-.119-.6-.238-1.224-.357-1.853a65.713,65.713,0,0,1-1.068-12.063c.055-12.108,3.369-20.711,3.907-21.076.713-.474,28.71,9.962,69.746,16.61s86.813,0,86.813,0-5.9,6.721-5.826,23.359c.009,1.324.055,2.712.137,4.154a25.658,25.658,0,0,0,.621,4.32c3.762,16.336,22.637,21.87,35.2,14.912h.009" transform="translate(37.088 471.22)" fill="#c3e3ed"/><path d="M303.575-120.217c-3.589,0-7.366-.1-11.335-.335-36.023-2.073-92.747-8.173-102.71-12.209-9.616-3.9-16.145-11.323-19.569-28.107-.119-.6-.238-1.224-.357-1.853a65.676,65.676,0,0,1-1.068-11.888v-.175c.055-12.108,3.369-20.711,3.907-21.076a.179.179,0,0,1,.087-.015c1.869,0,29.529,10.125,69.659,16.626a259.314,259.314,0,0,0,40.745,2.95A357.352,357.352,0,0,0,329-179.249s-5.83,6.643-5.826,23.067v.291c.009,1.324.055,2.712.137,4.154a25.657,25.657,0,0,0,.621,4.32c2.694,11.7,13.137,17.857,23.462,17.857a24.262,24.262,0,0,0,11.74-2.944h.009l-.009.009c-1.4.982-18.376,12.278-55.563,12.278" transform="translate(37.088 471.22)" fill="#aecde8"/><path d="M445.745-106.892c.408,2.182,1.12,3.855-2.644,4.781s-19.328.219-21.26-.485-1.118-3.835.712-4.3,23.192,0,23.192,0" transform="translate(-8.832 455.055)" fill="#3b424b"/><path d="M439.119-121.288s3.865-.641,6,1.737,1.424,10.129,0,11.363-8.544,1.232-13.02,1.673-10.173-.264-10.681-1.85-.1-3.7,1.119-4.492,4.374-.616,6-1.85,2.035-3.6,3.154-4.487,5.47-2.05,7.426-2.1" transform="translate(-8.919 457.653)" fill="#3b424b"/><path d="M530.657-104.393s1.584.792.88,3.082-2.025,2.466-6.605,2.466H510.839c-2.377,0-3.17-1.673-1.938-2.818s21.756-2.729,21.756-2.729" transform="translate(-24.782 454.563)" fill="#3b424b"/><path d="M521.216-117.648c-2.466.176-3.611,1.145-3.522,2.642s.176,3.7-2.379,4.227-5.021-.44-6.43,1.321-.088,4.228,0,5.021,7.487,0,12.948,0,10.3.089,10.3-3.788v-7.926c0-1.674-3.964-4.052-6.782-3.347a10.657,10.657,0,0,0-4.14,1.85" transform="translate(-24.766 457.336)" fill="#3b424b"/><path d="M436.882-124.346l2.2,5.109s0,1.057,2.025.88a6.447,6.447,0,0,0,3.413-1.409L442.7-126.9l-5.814,2.554" transform="translate(-11.773 458.661)" fill="#f0b8b1"/><path d="M436.566-152.664a8.329,8.329,0,0,1-3.744,3.807,6.841,6.841,0,0,1-1.242.457,11.1,11.1,0,0,1-6.164,0S398.14-175.913,394.1-206.987c-2.821-21.743,1.425-41.366,4.238-51.192,1.205-4.228,2.145-6.638,2.145-6.638s12.172,12.683,19.322,21.3c.84,1.014,1.606,1.973,2.283,2.84,3.79,4.9,6.913,11.726,8.83,16.474,1.334,3.287,2.082,5.588,2.082,5.588s-4.976,14.474-3.552,34.162,7.114,31.786,7.114,31.786" transform="translate(-3.815 483.773)" fill="#9b51af"/><path d="M519.8-121.948l3.963,4.492a4.934,4.934,0,0,0,3.434,0,5.064,5.064,0,0,0,2.467-2.9l-3.435-7.4-6.429,5.813" transform="translate(-26.871 458.818)" fill="#f0b8b1"/><path d="M516.674-149.85a8.508,8.508,0,0,1-4.5,5.452c-.3.146-.593.292-.877.429-3.424,1.653-6.246,2.657-6.246,2.657s-16.364-17.076-31.64-32.262-24.628-41.986-24.628-41.986l-2.556-15.651a66.856,66.856,0,0,1,12.994-7.479c1.689-.767,3.525-1.525,5.506-2.247a29.317,29.317,0,0,1,20.682-.073c.119.046.173.073.173.073s-.009.63.046,1.9v.009c.192,4.365,1.178,16.263,6.146,36.279,6.4,25.851,24.9,52.9,24.9,52.9" transform="translate(-13.475 479.77)" fill="#9b51af"/><path d="M478.22-257.356c-1.388,2.529-1.178,7.469-.923,10.217.119.046.173.073.173.073s-.009.63.046,1.9l-.046.017s-6.346,1.534-14.546,3.762c-1.946.521-3.982,1.077-6.073,1.672-10.911,3.086-16.181,18.025-16.181,18.025a3,3,0,0,1-.658.411,8.747,8.747,0,0,1-5.46.539,37.926,37.926,0,0,1-18.565-8.739,33.718,33.718,0,0,1-5.624-6.438c-3.443-5.1-5.443-12.173-6.648-18.527-.959-5.078-1.407-9.707-1.681-12.5a15.171,15.171,0,0,0-.355-2.785s10.574-7.223,20.536-6.748c.931.046,2.192.183,3.717.411.255.037.512.073.785.119l.228.036c.731.119,1.516.246,2.347.4.3.055.621.109.941.173.629.119,1.287.246,1.963.383.53.11,1.069.22,1.625.338q.754.165,1.534.329l1.1.246c.822.182,1.662.374,2.52.583.676.156,1.352.321,2.037.484,3.606.887,7.4,1.909,11.157,3.013.685.21,1.37.412,2.055.622a128.931,128.931,0,0,1,15.505,5.734c.292.129.576.265.858.4s.557.264.822.4a36.035,36.035,0,0,1,4.273,2.447c.2.137.393.275.586.411s.356.265.529.393c.182.146.357.284.52.429s.3.266.448.4.274.265.4.393l.027.027c.119.137.238.265.347.393-.109.173-.228.357-.328.549" transform="translate(-5.364 485.901)" fill="#9b51af"/><path d="M501.708-194.671q-.486-1.955-.922-3.806h0q.435,1.852.921,3.806" transform="translate(-23.409 471.693)" fill="#3e4598"/><path d="M495.031-230.783c-.4-3.409-.565-5.867-.633-7.4v-.009h0c.068,1.529.233,3.99.635,7.406h0" transform="translate(-22.246 478.924)" fill="#475cb3"/><path d="M499.766-204.059h0a225.247,225.247,0,0,1-4.592-25.075h0a225.3,225.3,0,0,0,4.591,25.076" transform="translate(-22.387 477.276)" fill="#4856af"/><path d="M403.318-251.536h0a34.144,34.144,0,0,1-3.826-5.863c.34-1.194.66-2.244.942-3.135.478.5,1.064,1.074,1.763,1.7.268,2.188.626,4.682,1.12,7.295h0" transform="translate(-4.965 482.993)" fill="#843ca2"/><path d="M516.819-143.123c-.8-5.2-7.5-10.756-23.458-37.393a118.72,118.72,0,0,1-16.8-53.894h0c8.2-2.228,14.546-3.762,14.546-3.762l.046-.017h0v.009c.068,1.531.232,3.989.633,7.4a225.248,225.248,0,0,0,4.592,25.075h0q.437,1.852.921,3.806h0c6.4,25.851,24.9,52.9,24.9,52.9a8.508,8.508,0,0,1-4.5,5.452c-.3.146-.593.292-.877.429h0" transform="translate(-18.997 478.925)" fill="#843ca2"/><path d="M463.129-238.1c-.11-2.4-.064-3.743-.064-3.743s-3.88.246-11.752.31q-1.868.018-4.037.019c-5.191,0-11.679-.086-19.485-.328a59.053,59.053,0,0,1-6.228-.513c-9.058-1.26-14.154-4.584-17.642-8.8h0c-.494-2.613-.852-5.107-1.12-7.295,4.877,4.4,15.225,11.4,32.213,12.1q2.668.111,5.252.109a140.234,140.234,0,0,0,37.32-5.15,23.08,23.08,0,0,0-.27,3.746c0,1.413.091,2.76.187,3.8.119.046.173.073.173.073v.122c0,.239.005.83.046,1.778l-.046.017s-6.346,1.534-14.546,3.762h0" transform="translate(-5.567 482.613)" fill="#843ca2"/><path d="M436.912-140.516c-4.073-5.068-10.794-15.541-16.72-34.645-8.108-26.153-3.241-37.978-1.662-43.849h0a37.925,37.925,0,0,0,18.565,8.739,91.166,91.166,0,0,0-3.808,27.04c0,2.28.079,4.66.256,7.121,1.416,19.687,7.114,31.786,7.114,31.786a8.329,8.329,0,0,1-3.744,3.807h0" transform="translate(-7.905 475.432)" fill="#843ca2"/><path d="M439.132-213.573a12.3,12.3,0,0,1-2.036-.179h0a37.925,37.925,0,0,1-18.565-8.739,11.692,11.692,0,0,0,.43-2.155c.365-4.831-3.1-12.994-3.315-13.478.348.585,9.122,15.167,19.368,18.784.283.1.575.192.858.274a14.077,14.077,0,0,1,6.684,4.776,7.537,7.537,0,0,1-3.424.718" transform="translate(-7.906 478.912)" fill="#843ca2"/><path d="M423.675-359.269l-14.911,34.845s-23.486,9.452-41.942-2.364a39.524,39.524,0,0,1-18.162-31.741s1.261-2.8,8.008-1.507c.183.027.365.073.557.11,7.233,1.552,7.68,3.907,7.68,3.907s.292,8.41,15.8,10.922c8.392,1.361,20.281-2.9,29.431-7.1,5.561-2.548,10.108-5.077,12.236-6.3l.109-.064c.776-.447,1.2-.7,1.2-.7" transform="translate(4.29 501.172)" fill="#1db5d2"/><path d="M382.707-332.828c-13.876,0-23.95-12.409-25.5-17.569a11.912,11.912,0,0,1,.007-6.448L387.7-333.365a23.753,23.753,0,0,1-5,.537" transform="translate(2.815 500.53)" fill="#18b3d1"/><path d="M485.2-303.815c-3.049,10.674-3.387,20.49-3.625,26.042-.064,1.443-.118,2.593-.209,3.388-.438,3.9-2.211,3.506-2.211,3.506s-.264.092-.785.255a138.351,138.351,0,0,1-44.1,5.5c-24.957-1.032-35.586-15.652-35.586-15.652a39.3,39.3,0,0,1,.639-6.693c.165-1.014.365-2.136.63-3.37a130.924,130.924,0,0,1,9.506-27.587,314.047,314.047,0,0,1,18.49-34.645c2.283-3.67,3.662-5.67,3.662-5.67l41.932-2.8a62.988,62.988,0,0,1,7.387,13.725c2.8,7.534,8.118,30.572,4.273,44.005" transform="translate(-4.816 501.385)" fill="#27b9e7"/><path d="M445.054-364.541s-5.168-1.772-7.827,1.477-1.328,10.188,10.337,12.847,28.5-5.907,32.781-9.746-3.4-8.121-11.075-7.383-24.217,2.806-24.217,2.806" transform="translate(-11.626 502.457)" fill="#31a0e0"/><path d="M472.831-367.947s-6.274,7.416-15.314,8.365a4.577,4.577,0,0,1-.484.056c-9.3.739-13.587-4.585-13.587-4.585a17.122,17.122,0,0,0,1.324-4.721c.027-.2.046-.411.054-.612a7.412,7.412,0,0,0-.182-2.091,9.552,9.552,0,0,0-1.2-2.913s2.045-1.014,5.049-2.42c8.446-3.972,24.455-11.058,23.741-7.469-.967,4.867.594,16.39.594,16.39" transform="translate(-12.968 505.714)" fill="#eaaba4"/><path d="M452.536-350.356c-.237-.018-.3-.046-.165-.046l.165.046" transform="translate(-14.581 499.356)" fill="#9877a9"/><path d="M444.824-366.375a12.781,12.781,0,0,1-1.378-.128s.41-.748,1.2-1.963h0a7.412,7.412,0,0,1,.182,2.091h0" transform="translate(-12.968 502.645)" fill="#e499b1"/><path d="M457.783-358.827a12.492,12.492,0,0,0,2.32-3.588c3.333-7.589.328-8.9.328-8.9s-7.889,2.659-14.225,2.659c-.378,0-.75-.009-1.116-.029h0a7.415,7.415,0,0,0-.182-2.091q.169-.265.362-.56a48.758,48.758,0,0,0,26.963-9.834c-.033.607-.047,1.251-.047,1.916a108.157,108.157,0,0,0,.911,12.065s-6.274,7.416-15.314,8.365" transform="translate(-13.235 504.959)" fill="#ed7982"/><path d="M496.65-422c-2.658,9.6-11.862,7.972-11.862,7.972s3.151,6.5-3.79,10.784-11.515,1.324-16.683-5.022-61.875-25.1-61.875-25.1-17.423-5.763-16.235-20.381,10.921-13.287,10.921-13.287A14.56,14.56,0,0,1,393.8-479.4a15.733,15.733,0,0,1,1.7-4.475c5.314-9.6,16.39-4.722,16.39-4.722s1.626-6.939,11.67-8.272,11.661,5.469,11.661,5.469,2.813-7.287,12.108-5.644,8.127,7.415,8.127,7.415,7.68-5.168,17.569,1.47,7.826,14.474,7.826,14.474,10.638-3.251,15.953,11.515a25.446,25.446,0,0,1,1.4,6,20.245,20.245,0,0,1-6.419,17.185s7.534,7.387,4.867,16.984" transform="translate(-2.535 526.101)" fill="#2f89d1"/><path d="M474.9-397.25c-3.23,0-6.01-1.912-8.875-5.042a27.082,27.082,0,0,0,4.487-5.985,13.836,13.836,0,0,0,4.528.78c3.288,0,7.457-1.324,9.214-7.427a12.511,12.511,0,0,0,.533-3.428c0-5.338-4.644-6.867-7.912-6.867a5.849,5.849,0,0,0-2.821.552c-1.524.985-3.132,4.863-6.128,4.863a5.9,5.9,0,0,1-3.761-1.758,10.059,10.059,0,0,1-3.176-7.884,19.8,19.8,0,0,1,1.1-6.3h0a27.025,27.025,0,0,1-8.419-5.013c-2.885-2.5-3.349-4.459-3.35-5.466a2.34,2.34,0,0,1,.1-.734h0c-.264.158-4.993,2.934-9.8,2.934a10.292,10.292,0,0,1-3.041-.432c-5.763-1.762-6.055-6.045-6.055-6.045s-5.119,3.668-10.042,3.668a8.5,8.5,0,0,1-2.213-.279c-5.469-1.48-6.5-4.576-6.5-4.576s-.275.466-.739,1.1a9.2,9.2,0,0,1-3.388,3.04,11.573,11.573,0,0,1-4.056.635c-.751,0-1.259-.05-1.259-.05a57.644,57.644,0,0,0-3.886,16.311c-4.7-2.292-13.3-7.831-13.3-17.688,0-.466.018-.941.059-1.427,1-12.365,8.119-13.319,10.293-13.319a5.124,5.124,0,0,1,.628.032h0a14.8,14.8,0,0,1-3.626-9.505,13.788,13.788,0,0,1,.3-2.857,14.889,14.889,0,0,0,9.36,9.934s-3.042,6.32,1.4,8.995a4.7,4.7,0,0,0,2.446.744c3,0,4.813-3.437,4.813-3.437s.9,5.6,9.058,5.826c.181.005.359.008.533.008,7.7,0,9.092-5.011,9.092-5.011s4.876,7.852,11.733,7.944h.115c6.774,0,9.427-7.945,9.427-7.945a12.472,12.472,0,0,0,8.74,11.76,16.543,16.543,0,0,0,5.545,1.115c4.179,0,5.48-2.466,5.622-2.777-.155.43-2.264,6.228-1.141,9.6.527,1.589,1.3,2.022,2.308,2.022,1.215,0,2.778-.625,4.687-.625,3.5,0,6.729,4.218,6.729,4.218a5.3,5.3,0,0,0,3.06-4.218c.219-2.858-.8-3.854-.923-3.954a1.593,1.593,0,0,0,.618.108c1.006,0,3.1-.712,5.435-5.714a9.667,9.667,0,0,1,5.744-5.36,21.8,21.8,0,0,1,.119,2.254A20.179,20.179,0,0,1,491.782-435h0s5.438,5.333,5.438,12.823a15.511,15.511,0,0,1-.57,4.161c-1.985,7.169-7.623,8.077-10.349,8.077a9.535,9.535,0,0,1-1.513-.1h0a8.745,8.745,0,0,1,.713,3.473c0,2.209-.864,5.066-4.5,7.311a11.64,11.64,0,0,1-6.094,2.013" transform="translate(-2.535 522.119)" fill="#2b7dca"/><path d="M487.17-409.64c-3.1,10.785-13.742,6.647-13.742,6.647-6.748,12.638-30.728,25.076-49.739,17.478a30.89,30.89,0,0,1-10.8-7.287,38.747,38.747,0,0,1-3.6-4.291,37.884,37.884,0,0,1-6.5-15.742c-2.583-15.077,3.461-28.847,3.461-28.847a13.508,13.508,0,0,0,5.314-.585,9.2,9.2,0,0,0,3.388-3.04c.465-.63.739-1.1.739-1.1s1.032,3.1,6.5,4.576,12.255-3.388,12.255-3.388.292,4.283,6.055,6.045c5.625,1.735,12.519-2.31,12.839-2.5-.064.2-.841,2.648,3.25,6.2a27.024,27.024,0,0,0,8.419,5.013s-3.542,9.3,2.073,14.182,7.826-1.772,9.889-3.1,13.286-1.033,10.2,9.743" transform="translate(-5.448 516.837)" fill="#f0b8b1"/><path d="M490.021-409.641c-3.1,10.784-13.742,6.647-13.742,6.647-6.748,12.638-30.728,25.076-49.739,17.478,9.441.192,24.38-.987,29.941-9.661,8.4-13.086-1.159-30.983-8.7-35.877s-12.977-5.361-18.108-6.293c-4.548-.83-7.269-.931-11.871-7.962.465-.63.739-1.1.739-1.1s1.032,3.1,6.5,4.576,12.255-3.388,12.255-3.388.292,4.283,6.055,6.045c5.625,1.735,12.518-2.31,12.839-2.5-.064.2-.841,2.648,3.25,6.2a27.024,27.024,0,0,0,8.419,5.013s-3.542,9.3,2.073,14.182,7.826-1.772,9.889-3.1,13.286-1.033,10.2,9.743" transform="translate(-8.299 516.837)" fill="#e7968d"/><path d="M407.742-391.711a37.425,37.425,0,0,1-3.881-9.388,37.619,37.619,0,0,0,3.881,9.388" transform="translate(-5.761 508.587)" fill="#e499b1"/><path d="M409.437-389.688q-1.018-1.417-1.864-2.867a37.621,37.621,0,0,1-3.881-9.388q-.461-1.749-.758-3.484a6.106,6.106,0,0,1,1.932-.306c4.106,0,7.422,4.023,7.422,8.984a9.693,9.693,0,0,1-2.852,7.061" transform="translate(-5.592 509.431)" fill="#ee8089"/><path d="M359.509-407.428s-17.791,11.381-26.8,13.991c-7.48,2.166-9.273,2.37-9.663,2.38l-.1-.01s-3.027-12.2-2.433-21.341c.214-3.353.919-6.3,2.433-8.073,1.664-1.96,4.776-2.862,8.325-3.158,8.482-.734,19.51,1.978,19.51,1.978l.01.019,8.723,14.215" transform="translate(9.431 512.714)" fill="#f1bd81"/><path d="M468.945-302.217c-9.728,10.3-17.959,10.536-17.959,10.536l-23.942-18.441L323.778-389.642s-1.421-5.222,2.137-8.075c2.536-2.025,3.865-1.161,6.234-1.616a10.043,10.043,0,0,0,3.484-1.459c4.989-3.084,1.189-8.306,4.506-11.39a8.744,8.744,0,0,1,4.33-2.091c2.248-.465,4.441-.372,5.872-1.226,2.377-1.431.994-5.7.994-5.7L453.727-339.6l23.523,18.749s1.422,8.343-8.306,18.636" transform="translate(8.872 512.246)" fill="#f4c55d"/><path d="M456.4-324.534l-14.474,13.76L334.075-397.791a10.057,10.057,0,0,0,3.484-1.458c4.989-3.085,1.189-8.307,4.506-11.391a8.744,8.744,0,0,1,4.33-2.091c19.789,16.138,110.01,88.2,110.01,88.2" transform="translate(6.946 510.705)" fill="#e7af4c"/><path d="M492-284.054c-9.728,10.3-17.959,10.536-17.959,10.536l-23.942-18.441a40.076,40.076,0,0,0,17.234-10.731,35.258,35.258,0,0,0,9.45-18.749L500.3-302.69s1.422,8.343-8.306,18.637" transform="translate(-14.179 494.082)" fill="#cc555d"/><path d="M482.68-276.509c-1.771.443-1.624-1.329-5.02-3.4s-7.531-5.02-8.565-3.4a3.194,3.194,0,0,0,1.034,4.725c1.919,1.329,4.135,2.363,1.919,3.84s-6.349-2.068-8.121-2.659a15.345,15.345,0,0,1-4.134-2.806s-1.466.617-1.11,2.989a5.876,5.876,0,0,0,2.253,3.676,5.222,5.222,0,0,0-.059,3.2,6.658,6.658,0,0,0,2.372,2.965s-.593.592.119,2.016a9.714,9.714,0,0,0,1.779,2.431s-.949,1.9,1.187,3.973,8.006,1.4,11.208.613a47.414,47.414,0,0,0,8.142-3.408s3.067-2.956,1.88-8.413-4.882-6.354-4.882-6.354" transform="translate(-15.732 487.223)" fill="#f0b8b1"/><path d="M519.4-309.7c-3.251,36.033-29.924,34.116-29.924,34.116s2.457-2.812,1.132-7.981a14.809,14.809,0,0,0-1.57-3.9,8.29,8.29,0,0,0-2.566-2.894,21.917,21.917,0,0,0,6.794-21.4c-2.959-13.734-12.7-18.016-12.7-18.016s-2.639-8.767.255-16.712a17.906,17.906,0,0,1,.776-1.835c4.109-8.373,7.625-11.5,7.625-11.5s33.43,14.09,30.179,50.122" transform="translate(-19.527 501.072)" fill="#1db5d2"/><path d="M490.477-275.569c-.448,0-.7-.017-.7-.017a7.958,7.958,0,0,0,1.525-5,11.938,11.938,0,0,0-.393-2.976,14.813,14.813,0,0,0-1.57-3.9c3.159-1.835,18.245-11.57,17.7-30.235-.575-19.97-14.893-28.343-25.915-28.792a17.87,17.87,0,0,1,.776-1.835c4.109-8.373,7.625-11.5,7.625-11.5s30.4,12.813,30.4,45.248q0,2.367-.222,4.874c-2.938,32.567-25.009,34.133-29.228,34.133" transform="translate(-19.829 501.072)" fill="#18b3d1"/><path d="M363.4-361.173c.021.208-3.128,1.566-8.476,1.09s-7.975-3.1-7.975-3.1-.717-4.87-2.435-7.067-4.2-3.677-4.107-5.205,1.576-1.624,3.344-.574,2.387,2.149,3.1,2.388.525-1.528,0-4.059-2.961-7.02-1.911-8.644,2.244-1.1,3.342.955,1.815,7.211,2.579,8.4.929-.1,1.037-1.194-.894-8.977,1.3-9.694,2.387.764,2.339,3.3-.525,6.446.526,7.544,1.146-.191,1.432-1.815.574-6.733,1.624-8.5,3.82-2.15,3.868,1.337-1.337,7.592-1.05,9.407,1,.62,1.456-.478.693-4.015,3.272-4.372,1.815,2.8.763,5.47-2.674,3.057-3.2,7.211-.835,7.6-.835,7.6" transform="translate(5.794 506.323)" fill="#f0b8b1"/><path d="M331.283-423.612c-.353,2.8-1.19,6.141-3.066,8.38-1.729,2.044-4.822,2.722-7.693,2.852.214-3.354.919-6.3,2.433-8.073,1.664-1.96,4.776-2.862,8.325-3.158" transform="translate(9.413 512.687)" fill="#3b3d60"/><path d="M481.574-261.284c-.065,1.441-.121,2.592-.214,3.392-.437,3.892-2.212,3.5-2.212,3.5a136.525,136.525,0,0,1-44.893,5.751c-24.954-1.032-35.583-15.645-35.583-15.645a39.133,39.133,0,0,1,.641-6.7s5.463,9.9,30.426,15.748c20.82,4.869,44.539-3.232,51.833-6.048" transform="translate(-4.816 484.896)" fill="#31a0e0"/><path d="M494.35-238.629s-.119-.776-.219-1.973c.119.046.173.073.173.073s-.009.63.046,1.9" transform="translate(-22.197 479.364)" fill="#7d4fad"/><path d="M412.191-406.986a1.95,1.95,0,0,1-1.95,1.95,1.951,1.951,0,0,1-1.95-1.95,1.95,1.95,0,0,1,1.95-1.95,1.949,1.949,0,0,1,1.95,1.95" transform="translate(-6.568 510.014)" fill="#231f20"/><path d="M456.16-407.042a2.2,2.2,0,0,1-2.2,2.2,2.2,2.2,0,0,1-2.2-2.2,2.2,2.2,0,0,1,2.2-2.2,2.2,2.2,0,0,1,2.2,2.2" transform="translate(-14.482 510.07)" fill="#231f20"/><path d="M455.753-381.6a11.3,11.3,0,0,1-1.706-1.1,11.273,11.273,0,0,1-1.975-15.821,11.256,11.256,0,0,1,8.906-4.351,11.228,11.228,0,0,1,4.389.891,21.925,21.925,0,0,1-3.079,14.728,16.532,16.532,0,0,1-6.536,5.651" transform="translate(-14.106 508.909)" fill="#ee8089"/><path d="M462.31-380.122A11.213,11.213,0,0,1,457.1-381.4a16.532,16.532,0,0,0,6.536-5.651,21.925,21.925,0,0,0,3.079-14.728,11.282,11.282,0,0,1,2.526,1.485,11.275,11.275,0,0,1,1.975,15.821,11.258,11.258,0,0,1-8.907,4.351" transform="translate(-15.455 508.711)" fill="#ee6f77"/><path d="M447.777-388.554c.027,1.988-1.394,4.942-3.967,7.46a16.809,16.809,0,0,1-16.983,4.079h-.009c-13.815-4.05-16.25-10.127-16.138-13.388a4.931,4.931,0,0,1,.947-2.954,4.287,4.287,0,0,1,4.014-1.357c2.8.288,3.614,2.639,8.194,3.781a21.2,21.2,0,0,0,12.329-1.226c5.547-2.3,9.514-1.5,11.363,2.416a2.9,2.9,0,0,1,.251,1.189" transform="translate(-7.001 507.432)" fill="#6c1e20"/><path d="M447.988-388.554a16.752,16.752,0,0,1-4.126,1.153c-4.5.7-4.673-1.153-4.673-1.153a5.8,5.8,0,0,1-5.806,3.057c-4.321-.288-5.993-1.9-5.993-1.9a7.453,7.453,0,0,1-5.639,1.049,5.639,5.639,0,0,1-3.875-3.781c-.074-.251-3.772,1.059-6.039-3.224a4.286,4.286,0,0,1,4.014-1.357c2.8.288,3.614,2.639,8.194,3.781a21.2,21.2,0,0,0,12.329-1.226c5.547-2.3,9.514-1.5,11.362,2.416a2.9,2.9,0,0,1,.251,1.189" transform="translate(-7.213 507.432)" fill="#fff"/><path d="M447.39-378.793a16.809,16.809,0,0,1-16.983,4.079H430.4c-.326-1.988.52-6.559,7.4-7.311,5.361-.577,8.251,1.653,9.588,3.232" transform="translate(-10.582 505.131)" fill="#f274b4"/><path d="M424.931-404.413c2.526.777,4.58,6.166,4.316,8.984s-2.819,4.153-5.814,3.882-3.7-3.09-3.17-5.291,2.554-2.113,3.17-4.58.473-3.31,1.5-2.995" transform="translate(-8.718 509.202)" fill="#e07b83"/><path d="M406.719-418.828a1.224,1.224,0,0,0,.088,1.764,2.323,2.323,0,0,0,1.886.446c.662-.089,1.295-.328,1.952-.445a5.35,5.35,0,0,1,2.966.326c.34.142.615.081.745-.264a1.156,1.156,0,0,0-.224-1.036,3.126,3.126,0,0,0-1.618-1.1,9.206,9.206,0,0,0-1.96-.329c-1.36-.13-2.784-.236-3.835.637" transform="translate(-6.22 511.947)" fill="#2f89d1"/><path d="M447.738-415.944a1.817,1.817,0,0,0,1.75.371c.607-.145,1.162-.458,1.758-.647a7.051,7.051,0,0,1,4.8.555c.5.21,1.1.438,1.54.13a1,1,0,0,0,.287-1.147,2.125,2.125,0,0,0-.817-.95,6.9,6.9,0,0,0-4.4-1.085c-.8.047-6.835.713-4.911,2.773" transform="translate(-13.681 511.798)" fill="#2f89d1"/></g><path d="M663.161-117.934c-3.854,16-12.135,16.276-27.574,25.376s-17.1,11.849-12.954,18.2,19.293,1.646,26.471,4.13,10.745,9.653,7.383,18.909-20.624,3.155-37.442,4.161-16.819,5.609-14.334,10.37,16.463-.877,27.021,10.579S634.482.634,625.106-.748s-15.989-14.886-24.537-15.714S582.646-18.393,579.058,6.43s0,74.176,0,74.176a11.96,11.96,0,0,1-7.66,2.168,11.735,11.735,0,0,1-5.847-2.168s-.827-51.018,1.1-70.047,1.1-30.048-4.969-36.771-16.266-8.172-26.963-9.277-19.914-10.2-16.02-28.954,19.549-13.782,31.134-7.719,23.433,10.2,23.157,3.588-14.61-12.687-23.71-22.614-11.032-20.4-7.178-28.393,14.346-14.068,24.549-4.417,15.163,22.339,19.579,19.027,2.751-5.234-3.312-14.888-9.376-20.406-1.1-24.823,17.921,7.444,24.537,10.756,6.349-4.407,8.557-14.334c2.12-9.543,28.206-45.36,42.954-36.309a10.951,10.951,0,0,1,1.705,1.292c14.344,13.23-8,39.148-15.715,47.7s-2.208,10.479,1.932,9.376,21.235-7.719,17.371,8.271" transform="translate(17.116 384.267)" fill="#f6d33c"/><path d="M660.377-118.01c-3.854,16-12.135,16.276-27.574,25.376s-17.1,11.849-12.954,18.2,19.293,1.646,26.471,4.13S657.064-60.654,653.7-51.4s-20.624,3.155-37.442,4.161-16.819,5.609-14.334,10.37,16.463-.877,27.021,10.579S631.7.558,622.322-.824,606.333-15.71,597.785-16.538s-17.922-1.932-21.511,22.892,0,74.176,0,74.176a11.96,11.96,0,0,1-7.66,2.168c-.474-9.809-.927-25.435.108-37.757,1.646-19.482-2.07-71.426,24.775-128.329,19.006-40.3,46.916-80.959,61.586-101.258a10.953,10.953,0,0,1,1.705,1.292c14.344,13.23-8,39.148-15.715,47.7s-2.208,10.479,1.932,9.376,21.235-7.719,17.371,8.271" transform="translate(19.9 384.343)" fill="#e9a62a"/><path d="M142.657,36.8a12.7,12.7,0,0,1-6.668,3.53,8.512,8.512,0,0,1-6.445-1.525,257.9,257.9,0,0,0,3.1-45.969c-.079-5.033-.317-10.305-.749-15.744-1.624-20.55-6.054-43.467-16.1-64.1q-2.23-4.58-4.419-8.7c-3.63-6.847-7.157-12.792-10.544-17.952-11.811-17.978-21.889-26.593-28.255-31.5-4.289-3.331-6.9-4.962-7.189-6.636a5.644,5.644,0,0,1,.918-4.112,8.582,8.582,0,0,1,1.506-1.786,14.407,14.407,0,0,1,1.221-1.037,15.2,15.2,0,0,1,2.4-1.469s3.274,3.207,8.355,8.9a294.562,294.562,0,0,1,30.47,40.7c2.509,4.069,4.946,8.309,7.288,12.681,2.821,5.323,5.487,10.851,7.852,16.528a165.081,165.081,0,0,1,8.026,25.589,322.505,322.505,0,0,1,6.334,38.058,486.776,486.776,0,0,1,2.9,54.55" transform="translate(-13.928 426.695)" fill="#9a53b0"/><path d="M134.582-25.471l.1,11.8s-.771.128-2.193.407A195.52,195.52,0,0,0,108.5-6.881c-14.827,4.929-30.1,8.56-38.109-6.677s4.933-37.224,25.938-36.522c15.91.528,29.678,14.4,35.407,21.072,1.828,2.133,2.842,3.537,2.842,3.537" transform="translate(-13.778 432.79)" fill="#9a53b0"/><path d="M131.137-33.885s-11.2-31.4,14.893-48.674S187.246-70.226,175.142-53.5,143.935-31.228,138.7-24.695s-7.415,7.864-7.415,7.864l-.145-17.054" transform="translate(-10.416 430.703)" fill="#9a53b0"/><path d="M108.978-102.6s-6.447-37.995,3.922-52.954,30.684-2.848,26,17.292-14.277,23.72-18.165,29.439-7.3,15.808-7.3,15.808l-4.456-9.584" transform="translate(-11.62 426.583)" fill="#9a53b0"/><path d="M112.509-97.767S80.336-72.124,61.924-77.218s-26.96-33.886-.369-43.3c17.808-6.294,32.584-.037,40.41,4.8a45.148,45.148,0,0,1,5.83,4.234c.133.132.207.191.207.191l.111.325,4.4,13.2" transform="translate(-15.068 428.746)" fill="#9a53b0"/><path d="M77.038-145.9s14.049-16.544,13.9-33.6S72.2-195.08,66.733-183.225s5.216,33.132,5.216,33.132l5.089,4.2" transform="translate(-13.935 424.924)" fill="#9a53b0"/><path d="M76.567-147.222a12.654,12.654,0,0,1-1.161,2.471c-2.509,4.354-9.866,13.4-29.257,18.087-26.17,6.342-44.248-16.217-22.184-34.363,19.87-16.341,41.156,1.786,45.17,5.529.451.419.681.659.681.659l6.751,7.618" transform="translate(-16.763 426.278)" fill="#9a53b0"/><path d="M135.74,6.177h-5.471c.142-3.529.227-7.29.227-11.234q0-2.358-.042-4.8c1.422-.279,2.193-.407,2.193-.407l-.1-11.8s-1.014-1.4-2.842-3.537h0c-1.624-20.55-6.054-43.467-16.1-64.1q-2.23-4.58-4.419-8.7h0l-4.4-13.2q3.634,5.871,7.141,12.3l.041.073,1.587,3.414s.033-.1.1-.279q2.333,4.373,4.56,9.011A163.791,163.791,0,0,1,130.205-51.8l0,.007a51.662,51.662,0,0,0,2.256,19.221l.145,17.054a15.978,15.978,0,0,0,2.461-2.192c.588,8.316.764,16.355.671,23.882" transform="translate(-11.742 429.385)" fill="#843ca2"/><path d="M88.473-2.612c-7.332,0-13.76-2.73-18.078-10.945A21.216,21.216,0,0,1,68-23.468c0-13.088,11.155-26.627,27.349-26.627.326,0,.65.005.98.015,15.91.528,29.678,14.4,35.407,21.072h0c1.828,2.133,2.842,3.537,2.842,3.537l.1,11.8s-.771.128-2.193.407h0A195.52,195.52,0,0,0,108.5-6.881c-6.833,2.271-13.762,4.268-20.031,4.268" transform="translate(-13.778 432.79)" fill="#843ca2"/><path d="M131.282-18.65,131.137-35.7a51.663,51.663,0,0,1-2.256-19.221,229.708,229.708,0,0,1,4.862,34.08h0a15.932,15.932,0,0,1-2.461,2.2" transform="translate(-10.416 432.522)" fill="#843ca2"/><path d="M106.6-109.566a45.15,45.15,0,0,0-5.83-4.234h0c-11.811-17.978-21.889-26.593-28.255-31.5a12.653,12.653,0,0,0,1.161-2.471l-6.751-7.618s-.231-.239-.681-.659a8.583,8.583,0,0,1,1.506-1.786c.873.833,1.77,1.693,2.668,2.6.856,2.018,1.469,3.238,1.469,3.238l5.089,4.2s.1-.12.285-.348A252.491,252.491,0,0,1,106.6-109.566" transform="translate(-13.875 426.827)" fill="#843ca2"/><path d="M113.179-96.471l-1.587-3.414c.574,1.032,1.136,2.066,1.675,3.123l.007.013c-.063.181-.1.279-.1.279" transform="translate(-11.366 430.034)" fill="#843ca2"/><path d="M67.218-76.548a19.838,19.838,0,0,1-5.294-.67A24.144,24.144,0,0,1,44.7-99.871c0-8.19,4.844-16.395,16.854-20.644a45.217,45.217,0,0,1,15.161-2.654,48.518,48.518,0,0,1,25.249,7.451h0a45.148,45.148,0,0,1,5.83,4.234h0c.109.169.207.349.318.517h0l4.4,13.2S85.887-76.548,67.218-76.548" transform="translate(-15.068 428.745)" fill="#843ca2"/><path d="M76.76-147.936l-5.089-4.2s-.612-1.22-1.469-3.238l.009.008c2.191,2.166,4.48,4.524,6.831,7.074,0,0,0,0,0,0-.185.228-.285.348-.285.348" transform="translate(-13.656 426.963)" fill="#843ca2"/><path d="M37.3-125.572c-13.527,0-23.226-8.053-23.236-18.062,0-5.544,2.964-11.686,9.9-17.393a27.51,27.51,0,0,1,17.843-6.72c13.292,0,24.523,9.635,27.327,12.249h0c.451.419.681.659.681.659l6.751,7.618a12.654,12.654,0,0,1-1.161,2.471h0c-2.509,4.354-9.866,13.4-29.257,18.087a37.635,37.635,0,0,1-8.852,1.092" transform="translate(-16.764 426.278)" fill="#843ca2"/><path d="M178.856-577.142c-1.568,17.149-32.849,12.518-32.849,12.518s-7.146,6.4-29.6,6.4-28.62-12.711-28.62-12.711A36.471,36.471,0,0,1,68.8-565.9c-11.521,0-14.839-4.435-14.839-4.435S21.8-562.06,21.8-590.74c0-7.365,1.908-12.08,4.74-15.021,8.142-8.482,24.013-2.115,24.013-2.115,5.834-10.938,15.981-13.307,26.433-7.389A35.193,35.193,0,0,1,107-631.233c20.928,0,22.41,19.506,22.41,19.506s12.067-9.456,23.175-3.84a23.877,23.877,0,0,1,9.9,9.174,21.438,21.438,0,0,1,2.771,7.085s15.155,5.019,13.6,22.166" transform="translate(-18.335 637.626)" fill="#7ecff3"/><path d="M80.409-602.674a4.522,4.522,0,0,1-.036-.535c0-.681.061-.388.036.535" transform="translate(-18.094 633.156)" fill="#2ab5ee"/><path d="M178.856-578.444c-1.568,17.149-32.849,12.518-32.849,12.518s-7.146,6.4-29.6,6.4-28.62-12.711-28.62-12.711A36.471,36.471,0,0,1,68.8-567.2c-11.521,0-14.839-4.435-14.839-4.435S21.8-563.363,21.8-592.043c0-7.365,1.908-12.08,4.74-15.021,2.479,24.841,21.972,11.035,21.972,11.035s2.236,10.463,19.493,11.011c13.878.449,15.531-13.672,15.641-17.427.559,3.974,6.867,14.268,22.8,17.44,16.71,3.329,17.816-11.023,17.816-11.023s9.479,14.911,19.506,14.911,11.69-12.967,11.69-12.967.28-6.345,7.024-13.611a21.439,21.439,0,0,1,2.771,7.085s15.155,5.019,13.6,22.167" transform="translate(-18.335 638.929)" fill="#2ab5ee"/><path d="M701.018-576.925l-17.012,68.467s-4.089,7.966-24.111,7.966-22.818-12.277-22.818-12.277-12.7,9.985-34.884,7.9-23.03-11.294-23.03-11.294-7.107,9.948-18.729,4.195-11.844-9.728-11.844-9.728-19.376,6.985-19.376-10.452c0-4.976,1.727-8.118,4.134-10.092,5.5-4.522,14.543-2.876,14.543-2.876S546-556.9,553.537-561.638s12.49-1.292,12.49-1.292a13.326,13.326,0,0,1,7.532-13.562c9.046-4.735,13.994,0,13.994,0s-1.717-14.427,18.305-17.764,26.7,11.091,26.7,11.091,8.178-11.631,32.51-15.72a28.462,28.462,0,0,1,20.084,3.85c10.683,6.507,15.87,18.11,15.87,18.11" transform="translate(-11.252 610.392)" fill="#7ecff3"/><path d="M701.018-577.15l-17.012,68.466s-4.089,7.966-24.111,7.966S637.076-513,637.076-513s-12.7,9.985-34.884,7.9-23.03-11.294-23.03-11.294-7.107,9.948-18.729,4.195-11.844-9.727-11.844-9.727-19.376,6.985-19.376-10.452c0-4.976,1.727-8.118,4.134-10.092,2.5,12.871,16.251,4.285,16.251,4.285s0,9.329,15.817,7.3,17.066-15.421,17.066-15.421,11.339,19.473,35.68,17.447,25.96-33.706,25.96-33.706,14.6,13.862,26.776,12.419,17.037-3.249,15.418-17.757-9.373-19.376-9.373-19.376,8.612-.486,8.2-7.992c10.683,6.507,15.87,18.11,15.87,18.11" transform="translate(-11.252 610.617)" fill="#2ab5ee"/></g></svg>